<?xml version="1.0" encoding="iso-8859-1"?>
<!-- Generator: Adobe Illustrator 19.0.0, SVG Export Plug-In . SVG Version: 6.00 Build 0)  -->
<svg version="1.1" id="Capa_1" xmlns="http://www.w3.org/2000/svg" xmlns:xlink="http://www.w3.org/1999/xlink" x="0px" y="0px"
	 viewBox="0 0 512 512" style="enable-background:new 0 0 512 512;" xml:space="preserve">
<path style="fill:#3693BD;" d="M14.822,342C5.236,315.119,0,286.173,0,256C0,114.615,114.615,0,256,0s256,114.615,256,256
	c0,30.173-5.236,59.119-14.822,86H14.822z"/>
<path style="fill:#0582B0;" d="M509.267,293.435c-2.902,19.805-8.063,38.876-15.229,56.935h-131.69H218.323H44.915
	c-3.288,0-5.322-3.582-3.639-6.406l86.575-145.198H98.999c-1.973,0-3.194-2.149-2.183-3.844l61.682-103.448h-24.266
	c-1.973,0-3.194-2.149-2.183-3.844l44.804-75.142c15.19-4.934,30.998-8.496,47.286-10.518l51.076,85.66
	c1.01,1.694-0.211,3.844-2.183,3.844h-24.266l41.57,69.718l41.57-69.718H307.64c-1.973,0-3.194-2.149-2.183-3.844l42.171-70.726
	c39.017,14.962,73.436,39.194,100.565,70.007l0.429,0.719c1.01,1.694-0.211,3.844-2.183,3.844h-24.265l61.682,103.448
	c1.01,1.694-0.21,3.844-2.183,3.844H452.82L509.267,293.435z"/>
<path style="fill:#BFB617;" d="M501.123,330C469.376,435.302,371.653,512,256,512S42.624,435.302,10.877,330H501.123z"/>
<path style="fill:#D0C731;" d="M372.851,483.832C337.819,501.836,298.097,512,256,512s-81.819-10.164-116.851-28.168h106.344
	l-6.856-15.939c-0.802-1.865,1.364-3.601,3.01-2.411l24.125,17.456l1.046-57.452c0.041-2.248,3.186-2.729,3.897-0.596l15.464,46.41
	l22.766-54.951c0.881-2.127,4.067-1.326,3.838,0.965l-6.535,65.347l22.009-15.925c1.645-1.19,3.812,0.545,3.01,2.411l-6.316,14.684
	H358L372.851,483.832L372.851,483.832z"/>
<path style="fill:#FFF2B4;" d="M470,342v31.333c0,11.537-9.352,20.889-20.889,20.889H282h-41.778H40.489
	C15.538,355.4,0.794,309.397,0.036,260H0v-74.667h0.053C0.019,184.99,0,184.641,0,184.289v-40.733
	c0-5.768,4.676-10.444,10.444-10.444H31.38H80h307.489c28.265,0,51.178,22.913,51.178,51.178l0,0
	c0,5.768-4.676,10.444-10.444,10.444h-47.161l68.05,126.378C460.648,321.111,470,330.463,470,342z"/>
<path style="fill:#FFDF8E;" d="M104.444,200.778v146.667c0,2.761-2.239,5-5,5H48.867c-2.761,0-5-2.239-5-5V200.778
	c0-2.761,2.239-5,5-5h50.578C102.206,195.778,104.444,198.016,104.444,200.778z M287.444,194.733H182.556c-2.761,0-5,2.239-5,5
	v63.111c0,2.761,2.239,5,5,5h104.889c2.761,0,5-2.239,5-5v-63.111C292.444,196.972,290.206,194.733,287.444,194.733z
	 M287.444,289.778H182.556c-2.761,0-5,2.239-5,5v0.444c0,2.761,2.239,5,5,5h104.889c2.761,0,5-2.239,5-5v-0.444
	C292.444,292.016,290.206,289.778,287.444,289.778z M287.444,310.667H182.556c-2.761,0-5,2.239-5,5v0.444c0,2.761,2.239,5,5,5
	h104.889c2.761,0,5-2.239,5-5v-0.444C292.444,312.905,290.206,310.667,287.444,310.667z"/>
<path style="fill:#F8BB5E;" d="M73.111,291.778v4.356c0,1.105-0.895,2-2,2H43.778c-1.105,0-2-0.895-2-2v-4.356c0-1.105,0.895-2,2-2
	h27.333C72.216,289.778,73.111,290.673,73.111,291.778z"/>
<path style="fill:#FFE899;" d="M470,373.333c0,11.537-9.352,20.889-20.889,20.889h-0.247H334.469H282h-41.778h-31.827H94H40.489
	c-4.339-6.751-8.365-13.723-12.067-20.889h71.615c9.506-18.597,28.839-31.333,51.16-31.333c22.32,0,41.654,12.736,51.16,31.333
	h58.754h41.778h37.618c9.506-18.597,28.839-31.333,51.16-31.333c22.32,0,41.654,12.736,51.16,31.333H470z M0,143.556v40.733
	c0,0.353,0.019,0.701,0.053,1.044H0V260h0.052c0.531,34.564,7.904,67.466,20.837,97.41V260h0.053V133.111H10.444
	C4.676,133.111,0,137.787,0,143.556z"/>
<path style="fill:#9FACBA;" d="M449.111,321.111H318.556c-2.884,0-5.222-2.338-5.222-5.222V199.956c0-2.884,2.338-5.222,5.222-5.222
	h62.506L449.111,321.111z M280,206.222h-90c-1.105,0-2,0.895-2,2v46.133c0,1.105,0.895,2,2,2h90c1.105,0,2-0.895,2-2v-46.133
	C282,207.118,281.105,206.222,280,206.222z"/>
<path style="fill:#B6C4CF;" d="M422.157,321.111H373l-59.667-107.164v-13.992c0-2.884,2.338-5.222,5.222-5.222h33.237
	L422.157,321.111z M280,206.222h-39.354l27.913,50.133H280c1.105,0,2-0.895,2-2v-46.133C282,207.118,281.105,206.222,280,206.222z"
	/>
<path style="fill:#465A61;" d="M187.753,399.444c0,20.189-16.367,36.556-36.556,36.556s-36.556-16.367-36.556-36.556
	s16.367-36.556,36.556-36.556C171.386,362.889,187.753,379.255,187.753,399.444z M391.667,362.889
	c-20.189,0-36.556,16.367-36.556,36.556s16.366,36.556,36.556,36.556s36.556-16.367,36.556-36.556
	C428.222,379.255,411.856,362.889,391.667,362.889z"/>
<path style="fill:#D9E7EC;" d="M166.864,399.444c0,8.652-7.014,15.667-15.667,15.667c-8.652,0-15.667-7.014-15.667-15.667
	c0-8.652,7.014-15.667,15.667-15.667C159.85,383.778,166.864,390.792,166.864,399.444z M391.667,383.778
	c-8.652,0-15.667,7.014-15.667,15.667c0,8.652,7.014,15.667,15.667,15.667s15.667-7.014,15.667-15.667
	C407.333,390.792,400.319,383.778,391.667,383.778z"/>
<g>
</g>
<g>
</g>
<g>
</g>
<g>
</g>
<g>
</g>
<g>
</g>
<g>
</g>
<g>
</g>
<g>
</g>
<g>
</g>
<g>
</g>
<g>
</g>
<g>
</g>
<g>
</g>
<g>
</g>
</svg>
