<?xml version="1.0" encoding="iso-8859-1"?>
<!-- Generator: Adobe Illustrator 19.0.0, SVG Export Plug-In . SVG Version: 6.00 Build 0)  -->
<svg version="1.1" id="Capa_1" xmlns="http://www.w3.org/2000/svg" xmlns:xlink="http://www.w3.org/1999/xlink" x="0px" y="0px"
	 viewBox="0 0 512 512" style="enable-background:new 0 0 512 512;" xml:space="preserve">
<path style="fill:#5AB9C3;" d="M509.388,258.612C509.388,397.665,396.871,512,256,512C115.495,512,2.612,398.01,2.612,258.612
	C2.612,118.67,116.057,5.224,256,5.224C396.203,5.224,509.388,118.909,509.388,258.612z"/>
<path style="fill:#FFC887;" d="M470.294,131.392v262.46c-27.467,43.464-67.802,78.084-115.823,98.346H157.581
	c-48.01-20.241-88.387-54.84-115.875-98.346v-262.46H470.294z"/>
<path style="fill:#965028;" d="M499.69,156.419H12.31c-6.872,0-10.97-8.624-7.185-15.079L85.525,4.359
	C87.12,1.637,89.821,0,92.709,0h328.208c2.92,0,5.642,1.668,7.227,4.432L502.255,133.3l4.661,8.113
	C510.639,147.878,506.52,156.419,499.69,156.419z"/>
<g>
	<path style="fill:#AA6432;" d="M502.255,133.3H87.84c-6.872,0-10.981-8.624-7.185-15.079L150.032,0h270.886
		c2.92,0,5.642,1.668,7.227,4.432L502.255,133.3z"/>
	<path style="fill:#AA6432;" d="M307.931,363.726V493.24H204.069V363.726c0-28.687,23.254-51.931,51.931-51.931
		c2.148,0,4.255,0.125,6.33,0.386C288.024,315.298,307.931,337.187,307.931,363.726z"/>
</g>
<path style="fill:#B9783D;" d="M307.931,363.726V493.24h-91.213V363.726c0-26.549,19.917-48.427,45.612-51.545
	C288.024,315.298,307.931,337.187,307.931,363.726z"/>
<path style="fill:#D29650;" d="M399.999,467.17c-14.182,9.823-29.417,18.228-45.528,25.027C324.251,504.94,291.007,512,256,512
	c-34.954,0-68.199-7.06-98.419-19.803c-16.111-6.789-31.367-15.204-45.56-25.027H399.999z"/>
<path style="fill:#AFEBD2;" d="M309.443,240.103c0,25.017-17.196,46.018-40.398,51.837c-4.171,1.053-8.551,1.606-13.045,1.606
	c-29.511,0-53.443-23.932-53.443-53.443S226.489,186.66,256,186.66c4.494,0,8.874,0.553,13.045,1.606
	C292.247,194.084,309.443,215.086,309.443,240.103z"/>
<path style="fill:#D2FAE6;" d="M309.443,240.103c0,25.017-17.196,46.018-40.398,51.837c-23.213-5.819-40.398-26.821-40.398-51.837
	s17.185-46.018,40.398-51.837C292.247,194.084,309.443,215.086,309.443,240.103z"/>
<path style="fill:#AA6432;" d="M256,178.839c-33.781,0-61.264,27.483-61.264,61.264s27.483,61.264,61.264,61.264
	s61.264-27.483,61.264-61.264S289.781,178.839,256,178.839z M245.054,284.384c-16.375-4.049-29.286-16.96-33.334-33.334
	c-0.393-1.591,0.84-3.125,2.48-3.125h31.439c1.404,0,2.541,1.138,2.541,2.541v31.439
	C248.179,283.543,246.644,284.777,245.054,284.384z M245.638,232.282h-31.439c-1.639,0-2.873-1.535-2.48-3.125
	c4.049-16.375,16.96-29.286,33.334-33.334c1.591-0.393,3.125,0.84,3.125,2.48v31.439
	C248.179,231.144,247.041,232.282,245.638,232.282z M266.946,195.822c16.375,4.049,29.286,16.96,33.334,33.334
	c0.393,1.591-0.84,3.125-2.48,3.125h-31.439c-1.404,0-2.541-1.138-2.541-2.541V198.3
	C263.821,196.662,265.356,195.428,266.946,195.822z M263.821,281.904v-31.439c0-1.404,1.138-2.541,2.541-2.541h31.439
	c1.639,0,2.873,1.535,2.48,3.125c-4.049,16.375-16.96,29.286-33.334,33.334C265.356,284.777,263.821,283.543,263.821,281.904z"/>
<circle style="fill:#80391B;" cx="229.915" cy="393.998" r="8.516"/>
<path style="fill:#AFEBD2;" d="M430.494,215.336v89.941h-80.816v-89.941c0-22.222,18.186-40.408,40.408-40.408
	c2.065,0,4.109,0.156,6.09,0.459C415.541,178.349,430.494,195.179,430.494,215.336z"/>
<path style="fill:#D2FAE6;" d="M430.494,215.336v89.941h-68.647v-89.941c0-20.157,14.964-36.988,34.329-39.949
	C415.541,178.349,430.494,195.179,430.494,215.336z"/>
<path style="fill:#B9783D;" d="M440.839,310.053c0,6.309-5.162,11.471-11.471,11.471h-78.553c-3.149,0-6.027-1.293-8.102-3.368
	c-2.075-2.086-3.368-4.943-3.368-8.102c0-6.309,5.162-11.471,11.471-11.471h78.553c3.16,0,6.017,1.293,8.102,3.368
	C439.546,304.036,440.839,306.893,440.839,310.053z"/>
<path style="fill:#D29650;" d="M440.839,310.053c0,6.309-5.162,11.471-11.471,11.471h-56.05c-3.149,0-6.027-1.293-8.102-3.368
	c-2.075-2.086-3.368-4.943-3.368-8.102c0-6.309,5.162-11.471,11.471-11.471h56.05c3.16,0,6.017,1.293,8.102,3.368
	C439.546,304.036,440.839,306.893,440.839,310.053z"/>
<g>
	<path style="fill:#96E1BE;" d="M416.808,198.589c-3.207-2.894-8.151-2.642-11.046,0.564l-48.163,53.345
		c-2.895,3.206-2.642,8.151,0.564,11.046c1.496,1.35,3.37,2.016,5.238,2.016c2.136,0,4.264-0.87,5.807-2.58l48.163-53.345
		C420.267,206.429,420.013,201.484,416.808,198.589z"/>
	<path style="fill:#96E1BE;" d="M422.683,241.655c-3.23-2.87-8.173-2.576-11.041,0.653l-22.255,25.053
		c-2.869,3.23-2.577,8.172,0.653,11.041c1.49,1.324,3.344,1.974,5.191,1.974c2.158,0,4.305-0.887,5.85-2.627l22.255-25.053
		C426.203,249.467,425.911,244.524,422.683,241.655z"/>
	<path style="fill:#96E1BE;" d="M357.499,225.636c1.49,1.323,3.344,1.974,5.191,1.974c2.158,0,4.305-0.887,5.85-2.627l6.537-7.358
		c2.869-3.23,2.577-8.172-0.653-11.041c-3.23-2.869-8.172-2.576-11.041,0.653l-6.537,7.358
		C353.978,217.824,354.27,222.767,357.499,225.636z"/>
</g>
<g>
	<rect x="248.184" y="0" style="fill:#80391B;" width="15.642" height="156.419"/>
	<polygon style="fill:#80391B;" points="185.935,0 146.83,156.419 130.709,156.419 169.813,0 	"/>
	<path style="fill:#80391B;" d="M113.951,0L28.567,156.419H12.31c-0.511,0-1.012-0.052-1.491-0.146L96.13,0H113.951z"/>
	<polygon style="fill:#80391B;" points="382.136,156.419 366.004,156.419 326.899,0 343.021,0 	"/>
	<path style="fill:#80391B;" d="M501.911,156.106c-0.699,0.198-1.439,0.313-2.221,0.313h-15.423L398.883,0h17.821L501.911,156.106z"
		/>
	<path style="fill:#80391B;" d="M455.517,52.025c-5.37,1.512-11.711,3.066-22.941,3.066c-12.128,0-18.551-1.814-24.214-3.42
		c-5.36-1.522-9.99-2.836-19.938-2.836s-14.578,1.314-19.938,2.836c-5.662,1.606-12.086,3.42-24.203,3.42
		c-12.128,0-18.551-1.814-24.214-3.42c-5.36-1.522-9.99-2.836-19.938-2.836c-9.948,0-14.578,1.314-19.938,2.836
		c-5.662,1.606-12.086,3.42-24.203,3.42c-12.128,0-18.541-1.814-24.203-3.42c-5.36-1.522-9.99-2.836-19.938-2.836
		c-9.948,0-14.578,1.314-19.938,2.836c-5.662,1.606-12.086,3.42-24.203,3.42c-12.128,0-18.541-1.814-24.203-3.42
		c-5.36-1.522-9.99-2.836-19.938-2.836s-14.578,1.314-19.938,2.836c-5.662,1.606-12.086,3.42-24.203,3.42
		c-10.595,0-16.841-1.387-22.024-2.816l8.259-14.067c3.504,0.74,7.623,1.241,13.765,1.241c9.948,0,14.578-1.314,19.938-2.826
		c5.662-1.606,12.076-3.431,24.203-3.431c12.117,0,18.541,1.825,24.203,3.431c5.36,1.512,9.99,2.826,19.938,2.826
		c9.948,0,14.578-1.314,19.938-2.826c5.662-1.606,12.076-3.431,24.203-3.431c12.117,0,18.541,1.825,24.203,3.431
		c5.36,1.512,9.99,2.826,19.938,2.826s14.578-1.314,19.938-2.826c5.662-1.606,12.086-3.431,24.203-3.431
		c12.128,0,18.541,1.825,24.203,3.431c5.36,1.512,9.99,2.826,19.949,2.826c9.948,0,14.578-1.314,19.938-2.826
		c5.662-1.606,12.076-3.431,24.203-3.431s18.541,1.825,24.203,3.431c5.36,1.512,10,2.826,19.949,2.826
		c6.789,0,11.095-0.615,14.849-1.481L455.517,52.025z"/>
	<path style="fill:#80391B;" d="M488.542,109.462c-6.027,1.387-12.92,2.638-24.839,2.638c-13.911,0-20.97-1.7-27.801-3.347
		c-6.215-1.491-12.076-2.909-24.13-2.909s-17.926,1.418-24.13,2.909c-6.83,1.648-13.89,3.347-27.801,3.347s-20.971-1.7-27.79-3.347
		c-6.215-1.491-12.076-2.909-24.13-2.909s-17.926,1.418-24.13,2.909c-6.83,1.648-13.89,3.347-27.801,3.347s-20.971-1.7-27.79-3.347
		c-6.215-1.491-12.076-2.909-24.13-2.909c-12.055,0-17.926,1.418-24.13,2.909c-6.83,1.648-13.89,3.347-27.801,3.347
		s-20.971-1.7-27.79-3.347c-6.215-1.491-12.076-2.909-24.13-2.909s-17.926,1.418-24.13,2.909c-6.83,1.648-13.89,3.347-27.801,3.347
		c-11.7,0-18.551-1.199-24.495-2.565l8.374-14.265c4.119,0.699,9.062,1.189,16.122,1.189c12.055,0,17.926-1.418,24.13-2.909
		c6.83-1.648,13.89-3.347,27.801-3.347c13.911,0,20.971,1.7,27.79,3.347c6.215,1.491,12.086,2.909,24.13,2.909
		c12.055,0,17.926-1.418,24.13-2.909c6.83-1.648,13.89-3.347,27.801-3.347c13.911,0,20.971,1.7,27.79,3.347
		c6.215,1.491,12.086,2.909,24.13,2.909c12.055,0,17.926-1.418,24.13-2.909c6.83-1.648,13.89-3.347,27.801-3.347
		s20.971,1.7,27.79,3.347c6.215,1.491,12.086,2.909,24.13,2.909c12.055,0,17.926-1.418,24.13-2.909
		c6.83-1.648,13.89-3.347,27.801-3.347s20.971,1.7,27.801,3.347c6.205,1.491,12.076,2.909,24.13,2.909
		c7.352,0,12.399-0.532,16.622-1.283L488.542,109.462z"/>
</g>
<path style="fill:#AFEBD2;" d="M162.314,215.336v89.941H81.497v-89.941c0-22.222,18.186-40.408,40.408-40.408
	c2.065,0,4.109,0.156,6.09,0.459C147.36,178.349,162.314,195.179,162.314,215.336z"/>
<path style="fill:#D2FAE6;" d="M162.314,215.336v89.941H93.667v-89.941c0-20.157,14.964-36.988,34.329-39.949
	C147.36,178.349,162.314,195.179,162.314,215.336z"/>
<path style="fill:#B9783D;" d="M172.658,310.053c0,6.309-5.162,11.471-11.471,11.471H82.634c-3.149,0-6.027-1.293-8.102-3.368
	c-2.075-2.086-3.368-4.943-3.368-8.102c0-6.309,5.162-11.471,11.471-11.471h78.553c3.16,0,6.017,1.293,8.102,3.368
	C171.365,304.036,172.658,306.893,172.658,310.053z"/>
<path style="fill:#D29650;" d="M172.658,310.053c0,6.309-5.162,11.471-11.471,11.471h-56.05c-3.149,0-6.027-1.293-8.102-3.368
	c-2.075-2.086-3.368-4.943-3.368-8.102c0-6.309,5.162-11.471,11.471-11.471h56.05c3.16,0,6.017,1.293,8.102,3.368
	C171.365,304.036,172.658,306.893,172.658,310.053z"/>
<g>
	<path style="fill:#96E1BE;" d="M148.627,198.589c-3.207-2.894-8.152-2.642-11.046,0.564l-48.163,53.345
		c-2.895,3.206-2.642,8.151,0.564,11.046c1.496,1.35,3.37,2.016,5.238,2.016c2.136,0,4.264-0.87,5.807-2.58l48.163-53.345
		C152.086,206.429,151.834,201.484,148.627,198.589z"/>
	<path style="fill:#96E1BE;" d="M154.502,241.655c-3.23-2.87-8.173-2.576-11.041,0.653l-22.255,25.053
		c-2.869,3.23-2.577,8.172,0.653,11.041c1.49,1.324,3.344,1.974,5.191,1.974c2.158,0,4.305-0.887,5.85-2.627l22.255-25.053
		C158.024,249.467,157.732,244.524,154.502,241.655z"/>
	<path style="fill:#96E1BE;" d="M89.318,225.636c1.49,1.323,3.344,1.974,5.191,1.974c2.158,0,4.305-0.887,5.85-2.627l6.537-7.358
		c2.869-3.23,2.577-8.172-0.653-11.041c-3.23-2.869-8.172-2.576-11.041,0.653l-6.537,7.358
		C85.797,217.824,86.089,222.767,89.318,225.636z"/>
</g>
<path style="fill:#AFEBD2;" d="M172.658,357.198v16.257c0,6.611-5.423,12.034-12.034,12.034H83.187
	c-6.611,0-12.023-5.423-12.023-12.034v-16.257c0-6.622,5.412-12.034,12.023-12.034h77.438
	C167.236,345.164,172.658,350.576,172.658,357.198z"/>
<path style="fill:#D2FAE6;" d="M172.658,357.198v16.257c0,6.611-5.423,12.034-12.034,12.034H105.69
	c-6.611,0-12.023-5.423-12.023-12.034v-16.257c0-6.622,5.412-12.034,12.023-12.034h54.934
	C167.236,345.164,172.658,350.576,172.658,357.198z"/>
<path style="fill:#AA6432;" d="M160.624,337.343H83.187c-10.942,0-19.844,8.908-19.844,19.855v16.257
	c0,10.948,8.902,19.855,19.844,19.855h77.438c10.948,0,19.855-8.908,19.855-19.855v-16.257
	C180.479,346.25,171.573,337.343,160.624,337.343z M78.984,373.455v-16.257c0-2.284,1.925-4.213,4.202-4.213h30.903v24.683H83.187
	C80.909,377.668,78.984,375.739,78.984,373.455z M164.837,373.455c0,2.284-1.929,4.213-4.213,4.213h-30.893v-24.683h30.893
	c2.284,0,4.213,1.929,4.213,4.213V373.455z"/>
<path style="fill:#AFEBD2;" d="M440.839,357.198v16.257c0,6.611-5.423,12.034-12.034,12.034h-77.438
	c-6.611,0-12.023-5.423-12.023-12.034v-16.257c0-6.622,5.412-12.034,12.023-12.034h77.438
	C435.416,345.164,440.839,350.576,440.839,357.198z"/>
<path style="fill:#D2FAE6;" d="M440.839,357.198v16.257c0,6.611-5.423,12.034-12.034,12.034h-54.934
	c-6.611,0-12.023-5.423-12.023-12.034v-16.257c0-6.622,5.412-12.034,12.023-12.034h54.934
	C435.416,345.164,440.839,350.576,440.839,357.198z"/>
<path style="fill:#AA6432;" d="M428.805,337.343h-77.438c-10.942,0-19.844,8.908-19.844,19.855v16.257
	c0,10.948,8.902,19.855,19.844,19.855h77.438c10.948,0,19.855-8.908,19.855-19.855v-16.257
	C448.66,346.25,439.752,337.343,428.805,337.343z M347.165,373.455v-16.257c0-2.284,1.925-4.213,4.202-4.213h30.903v24.683h-30.903
	C349.089,377.668,347.165,375.739,347.165,373.455z M433.018,373.455c0,2.284-1.929,4.213-4.213,4.213h-30.893v-24.683h30.893
	c2.284,0,4.213,1.929,4.213,4.213V373.455z"/>
<g>
</g>
<g>
</g>
<g>
</g>
<g>
</g>
<g>
</g>
<g>
</g>
<g>
</g>
<g>
</g>
<g>
</g>
<g>
</g>
<g>
</g>
<g>
</g>
<g>
</g>
<g>
</g>
<g>
</g>
</svg>
