<?xml version="1.0" encoding="iso-8859-1"?>
<!-- Generator: Adobe Illustrator 19.0.0, SVG Export Plug-In . SVG Version: 6.00 Build 0)  -->
<svg version="1.1" id="Capa_1" xmlns="http://www.w3.org/2000/svg" xmlns:xlink="http://www.w3.org/1999/xlink" x="0px" y="0px"
	 viewBox="0 0 512 512" style="enable-background:new 0 0 512 512;" xml:space="preserve">
<path style="fill:#5AB9C3;" d="M506.5,261.5C506.5,398.968,395.265,512,256,512C117.097,512,5.5,399.309,5.5,261.5
	C5.5,123.152,117.652,11,256,11C394.605,11,506.5,123.389,506.5,261.5z"/>
<g>
	<path style="fill:#501E0F;" d="M407.203,456.609v4.66c-8.701,6.608-17.855,12.66-27.412,18.092
		c-14.928,8.505-30.834,15.525-47.504,20.835v-43.587L407.203,456.609L407.203,456.609z"/>
	<path style="fill:#501E0F;" d="M179.713,456.609v43.576c-16.649-5.309-32.546-12.319-47.473-20.824
		c-9.557-5.443-18.732-11.495-27.443-18.113v-4.639L179.713,456.609L179.713,456.609z"/>
</g>
<path style="fill:#80391B;" d="M469.738,73.885v318.282c-22.082,36.071-53.04,66.184-89.947,87.194H132.24
	c-20.608-11.732-39.381-26.298-55.793-43.185c-12.948-13.319-24.432-28.072-34.185-43.999V73.885C42.262,33.082,73.499,0,112.013,0
	h287.974C438.501,0,469.738,33.082,469.738,73.885z"/>
<path style="fill:#965028;" d="M469.738,73.885v318.282c-22.082,36.071-53.04,66.184-89.947,87.194H132.24
	c-20.608-11.732-39.381-26.298-55.793-43.185V73.885C76.447,33.082,107.673,0,146.188,0h253.799
	C438.501,0,469.738,33.082,469.738,73.885z"/>
<path style="fill:#69280F;" d="M441.048,89.682c0,12.649-3.773,24.432-10.258,34.267c-11.154,16.927-30.329,28.103-52.112,28.103
	H133.322c-17.216,0-32.814-6.979-44.102-18.268c-11.288-11.288-18.268-26.886-18.268-44.102c0-29.02,19.824-53.411,46.669-60.38
	c5.021-1.299,10.278-1.99,15.701-1.99h245.356c17.216,0,32.814,6.979,44.102,18.268C434.069,56.868,441.048,72.466,441.048,89.682z"
	/>
<path style="fill:#80391B;" d="M441.048,89.682c0,12.649-3.773,24.432-10.258,34.267c-5.01,1.299-10.268,1.99-15.69,1.99H169.744
	c-17.226,0-32.814-6.979-44.102-18.268c-11.288-11.288-18.268-26.876-18.268-44.102c0-12.66,3.773-24.432,10.247-34.267
	c5.021-1.299,10.278-1.99,15.701-1.99h245.356c17.216,0,32.814,6.979,44.102,18.268C434.069,56.868,441.048,72.466,441.048,89.682z"
	/>
<path style="fill:#3C190A;" d="M278.68,89.682c0,9.35-5.66,17.381-13.742,20.845c-2.742,1.186-5.763,1.835-8.938,1.835
	c-12.526,0-22.68-10.154-22.68-22.68s10.154-22.68,22.68-22.68c3.175,0,6.196,0.649,8.938,1.835
	C273.02,72.301,278.68,80.331,278.68,89.682z"/>
<path style="fill:#501E0F;" d="M278.68,89.682c0,9.35-5.66,17.381-13.742,20.845c-8.093-3.464-13.752-11.495-13.752-20.845
	s5.66-17.381,13.752-20.845C273.02,72.301,278.68,80.331,278.68,89.682z"/>
<path style="fill:#69280F;" d="M441.048,239.555c0,12.649-3.773,24.432-10.258,34.267c-11.154,16.927-30.329,28.103-52.112,28.103
	H133.322c-17.216,0-32.814-6.979-44.102-18.268c-11.288-11.288-18.268-26.886-18.268-44.102c0-29.02,19.824-53.411,46.669-60.38
	c5.021-1.299,10.278-1.99,15.701-1.99h245.356c17.216,0,32.814,6.979,44.102,18.268
	C434.069,206.741,441.048,222.339,441.048,239.555z"/>
<path style="fill:#80391B;" d="M441.048,239.555c0,12.649-3.773,24.432-10.258,34.267c-5.01,1.299-10.268,1.99-15.69,1.99H169.744
	c-17.226,0-32.814-6.979-44.102-18.268c-11.288-11.288-18.268-26.876-18.268-44.102c0-12.66,3.773-24.432,10.247-34.267
	c5.021-1.299,10.278-1.99,15.701-1.99h245.356c17.216,0,32.814,6.979,44.102,18.268
	C434.069,206.741,441.048,222.339,441.048,239.555z"/>
<path style="fill:#3C190A;" d="M278.68,239.555c0,9.35-5.66,17.381-13.742,20.845c-2.742,1.186-5.763,1.835-8.938,1.835
	c-12.526,0-22.68-10.154-22.68-22.68s10.154-22.68,22.68-22.68c3.175,0,6.196,0.649,8.938,1.835
	C273.02,222.174,278.68,230.205,278.68,239.555z"/>
<path style="fill:#501E0F;" d="M278.68,239.555c0,9.35-5.66,17.381-13.742,20.845c-8.093-3.464-13.752-11.495-13.752-20.845
	c0-9.35,5.66-17.381,13.752-20.845C273.02,222.174,278.68,230.205,278.68,239.555z"/>
<path style="fill:#69280F;" d="M441.048,389.428c0,12.649-3.773,24.432-10.258,34.267c-11.154,16.928-30.329,28.103-52.112,28.103
	H133.322c-17.216,0-32.814-6.979-44.102-18.268c-11.288-11.288-18.268-26.886-18.268-44.102c0-29.02,19.824-53.411,46.669-60.38
	c5.021-1.299,10.278-1.99,15.701-1.99h245.356c17.216,0,32.814,6.979,44.102,18.268
	C434.069,356.614,441.048,372.212,441.048,389.428z"/>
<path style="fill:#80391B;" d="M441.048,389.428c0,12.649-3.773,24.432-10.258,34.267c-5.01,1.299-10.268,1.99-15.69,1.99H169.744
	c-17.226,0-32.814-6.979-44.102-18.268c-11.288-11.288-18.268-26.876-18.268-44.102c0-12.66,3.773-24.432,10.247-34.267
	c5.021-1.299,10.278-1.99,15.701-1.99h245.356c17.216,0,32.814,6.979,44.102,18.268
	C434.069,356.614,441.048,372.212,441.048,389.428z"/>
<path style="fill:#3C190A;" d="M278.68,389.428c0,9.35-5.66,17.381-13.742,20.845c-2.742,1.186-5.763,1.835-8.938,1.835
	c-12.526,0-22.68-10.154-22.68-22.68s10.154-22.68,22.68-22.68c3.175,0,6.196,0.649,8.938,1.835
	C273.02,372.047,278.68,380.078,278.68,389.428z"/>
<path style="fill:#501E0F;" d="M278.68,389.428c0,9.35-5.66,17.381-13.742,20.845c-8.093-3.464-13.752-11.495-13.752-20.845
	s5.66-17.381,13.752-20.845C273.02,372.047,278.68,380.078,278.68,389.428z"/>
<g>
</g>
<g>
</g>
<g>
</g>
<g>
</g>
<g>
</g>
<g>
</g>
<g>
</g>
<g>
</g>
<g>
</g>
<g>
</g>
<g>
</g>
<g>
</g>
<g>
</g>
<g>
</g>
<g>
</g>
</svg>
